{
  "accessors": [
    {
      "name": "Rock_02_LOD0_1_0_positions",
      "componentType": 5126,
      "count": 3935,
      "min": [
        -87.55580139160156,
        -85.94259643554688,
        -83.06320190429688
      ],
      "max": [
        87.54859924316406,
        85.98259735107422,
        83.0115966796875
      ],
      "type": "VEC3",
      "bufferView": 0,
      "byteOffset": 0
    },
    {
      "name": "Rock_02_LOD0_1_0_normals",
      "componentType": 5126,
      "count": 3935,
      "min": [
        -0.9994748830795288,
        -0.9999908804893494,
        -0.9997352361679077
      ],
      "max": [
        0.9999796748161316,
        0.9998164176940918,
        0.9993436336517334
      ],
      "type": "VEC3",
      "bufferView": 1,
      "byteOffset": 0
    },
    {
      "name": "Rock_02_LOD0_1_0_texcoords",
      "componentType": 5126,
      "count": 3935,
      "min": [
        0.0010000000474974513,
        0.017100000753998756
      ],
      "max": [
        0.9937000274658203,
        0.9987999796867371
      ],
      "type": "VEC2",
      "bufferView": 2,
      "byteOffset": 0
    },
    {
      "name": "Rock_02_LOD0_1_0_indices",
      "componentType": 5123,
      "count": 21963,
      "min": [
        0
      ],
      "max": [
        3934
      ],
      "type": "SCALAR",
      "bufferView": 3,
      "byteOffset": 0
    }
  ],
  "asset": {
    "generator": "obj2gltf",
    "version": "2.0"
  },
  "buffers": [
    {
      "name": "uploads_files_2155717_Rock_LOD0",
      "byteLength": 169848,
      "uri": "data:application/octet-stream;base64,"
    }
  ],
  "bufferViews": [
    {
      "name": "bufferView_0",
      "buffer": 0,
      "byteLength": 47220,
      "byteOffset": 0,
      "byteStride": 12,
      "target": 34962
    },
    {
      "name": "bufferView_1",
      "buffer": 0,
      "byteLength": 47220,
      "byteOffset": 47220,
      "byteStride": 12,
      "target": 34962
    },
    {
      "name": "bufferView_2",
      "buffer": 0,
      "byteLength": 31480,
      "byteOffset": 94440,
      "byteStride": 8,
      "target": 34962
    },
    {
      "name": "bufferView_3",
      "buffer": 0,
      "byteLength": 43928,
      "byteOffset": 125920,
      "target": 34963
    }
  ],
  "materials": [
    {
      "name": "02___Default",
      "pbrMetallicRoughness": {
        "baseColorFactor": [
          0.5,
          0.5,
          0.5,
          1
        ],
        "metallicFactor": 0,
        "roughnessFactor": 1
      },
      "emissiveFactor": [
        0,
        0,
        0
      ],
      "alphaMode": "OPAQUE",
      "doubleSided": false
    }
  ],
  "meshes": [
    {
      "name": "Rock_02_LOD0_1",
      "primitives": [
        {
          "attributes": {
            "POSITION": 0,
            "NORMAL": 1,
            "TEXCOORD_0": 2
          },
          "indices": 3,
          "material": 0,
          "mode": 4
        }
      ]
    }
  ],
  "nodes": [
    {
      "name": "Rock_02_LOD0",
      "mesh": 0
    }
  ],
  "scene": 0,
  "scenes": [
    {
      "nodes": [
        0
      ]
    }
  ]
}
