{
  "accessors": [
    {
      "name": "META_1_0_positions",
      "componentType": 5126,
      "count": 4150,
      "min": [
        -218.30099487304688,
        76.76480102539062,
        75.63529968261719
      ],
      "max": [
        328.193603515625,
        325.47430419921875,
        214.3489990234375
      ],
      "type": "VEC3",
      "bufferView": 0,
      "byteOffset": 0
    },
    {
      "name": "META_1_0_normals",
      "componentType": 5126,
      "count": 4150,
      "min": [
        -0.9997237324714661,
        -0.9998083114624023,
        -1
      ],
      "max": [
        0.9998939633369446,
        0.9999405145645142,
        0.9999117255210876
      ],
      "type": "VEC3",
      "bufferView": 1,
      "byteOffset": 0
    },
    {
      "name": "META_1_0_texcoords",
      "componentType": 5126,
      "count": 4150,
      "min": [
        0.014000000432133675,
        0
      ],
      "max": [
        0.9860000014305115,
        1
      ],
      "type": "VEC2",
      "bufferView": 2,
      "byteOffset": 0
    },
    {
      "name": "META_1_0_indices",
      "componentType": 5123,
      "count": 24861,
      "min": [
        0
      ],
      "max": [
        4149
      ],
      "type": "SCALAR",
      "bufferView": 3,
      "byteOffset": 0
    },
    {
      "name": "METAojo_1_0_positions",
      "componentType": 5126,
      "count": 1415,
      "min": [
        -169.82699584960938,
        309.6636047363281,
        130.63169860839844
      ],
      "max": [
        -161.8386993408203,
        315.57598876953125,
        157.64010620117188
      ],
      "type": "VEC3",
      "bufferView": 0,
      "byteOffset": 49800
    },
    {
      "name": "METAojo_1_0_normals",
      "componentType": 5126,
      "count": 1415,
      "min": [
        -0.9761412143707275,
        -0.9975670576095581,
        -0.9946644902229309
      ],
      "max": [
        0.9552285075187683,
        0.994998574256897,
        0.9946644902229309
      ],
      "type": "VEC3",
      "bufferView": 1,
      "byteOffset": 49800
    },
    {
      "name": "METAojo_1_0_texcoords",
      "componentType": 5126,
      "count": 1415,
      "min": [
        0.08860000222921371,
        0.05139999836683273
      ],
      "max": [
        0.1031000018119812,
        0.07590000331401825
      ],
      "type": "VEC2",
      "bufferView": 2,
      "byteOffset": 33200
    },
    {
      "name": "METAojo_1_0_indices",
      "componentType": 5123,
      "count": 1452,
      "min": [
        0
      ],
      "max": [
        1414
      ],
      "type": "SCALAR",
      "bufferView": 3,
      "byteOffset": 49724
    },
    {
      "name": "METAojo_1_1_positions",
      "componentType": 5126,
      "count": 311,
      "min": [
        -168.77740478515625,
        310.0994873046875,
        131.4149932861328
      ],
      "max": [
        -163.15350341796875,
        315.4186096191406,
        156.85670471191406
      ],
      "type": "VEC3",
      "bufferView": 0,
      "byteOffset": 66780
    },
    {
      "name": "METAojo_1_1_normals",
      "componentType": 5126,
      "count": 311,
      "min": [
        -0.9937211871147156,
        -0.6358035206794739,
        -0.9865903258323669
      ],
      "max": [
        0.5879215002059937,
        0.7760710716247559,
        0.9955350160598755
      ],
      "type": "VEC3",
      "bufferView": 1,
      "byteOffset": 66780
    },
    {
      "name": "METAojo_1_1_texcoords",
      "componentType": 5126,
      "count": 311,
      "min": [
        0.08860000222921371,
        0.05139999836683273
      ],
      "max": [
        0.1031000018119812,
        0.07530000060796738
      ],
      "type": "VEC2",
      "bufferView": 2,
      "byteOffset": 44520
    },
    {
      "name": "METAojo_1_1_indices",
      "componentType": 5123,
      "count": 324,
      "min": [
        0
      ],
      "max": [
        310
      ],
      "type": "SCALAR",
      "bufferView": 3,
      "byteOffset": 52628
    },
    {
      "name": "DIENTS_1_0_positions",
      "componentType": 5126,
      "count": 14735,
      "min": [
        -216.4375,
        243.32069396972656,
        130.6053924560547
      ],
      "max": [
        -167.03329467773438,
        292.26629638671875,
        159.13890075683594
      ],
      "type": "VEC3",
      "bufferView": 0,
      "byteOffset": 70512
    },
    {
      "name": "DIENTS_1_0_normals",
      "componentType": 5126,
      "count": 14735,
      "min": [
        -0.9988617300987244,
        -0.9895104169845581,
        -0.999876081943512
      ],
      "max": [
        0.993859052658081,
        0.9938182830810547,
        0.9995956420898438
      ],
      "type": "VEC3",
      "bufferView": 1,
      "byteOffset": 70512
    },
    {
      "name": "DIENTS_1_0_texcoords",
      "componentType": 5126,
      "count": 14735,
      "min": [
        0.004000000189989805,
        0.14589999616146088
      ],
      "max": [
        0.09359999746084213,
        0.34279999136924744
      ],
      "type": "VEC2",
      "bufferView": 2,
      "byteOffset": 47008
    },
    {
      "name": "DIENTS_1_0_indices",
      "componentType": 5123,
      "count": 15168,
      "min": [
        0
      ],
      "max": [
        14734
      ],
      "type": "SCALAR",
      "bufferView": 3,
      "byteOffset": 53276
    },
    {
      "name": "UNAS_1_0_positions",
      "componentType": 5126,
      "count": 637,
      "min": [
        -115.05229949951172,
        79.33589935302734,
        68.04850006103516
      ],
      "max": [
        23.564899444580078,
        215.8647003173828,
        221.51319885253906
      ],
      "type": "VEC3",
      "bufferView": 0,
      "byteOffset": 247332
    },
    {
      "name": "UNAS_1_0_normals",
      "componentType": 5126,
      "count": 637,
      "min": [
        -0.9954311847686768,
        -0.9940407872200012,
        -0.996096670627594
      ],
      "max": [
        0.9997058510780334,
        0.9911296963691711,
        0.9934535622596741
      ],
      "type": "VEC3",
      "bufferView": 1,
      "byteOffset": 247332
    },
    {
      "name": "UNAS_1_0_indices",
      "componentType": 5123,
      "count": 3702,
      "min": [
        0
      ],
      "max": [
        636
      ],
      "type": "SCALAR",
      "bufferView": 3,
      "byteOffset": 83612
    }
  ],
  "asset": {
    "generator": "obj2gltf",
    "version": "2.0"
  },
  "buffers": [
    {
      "name": "T-Rex Model",
      "byteLength": 765856,
      "uri": "data:application/octet-stream;base64,"
    }
  ],
  "bufferViews": [
    {
      "name": "bufferView_0",
      "buffer": 0,
      "byteLength": 254976,
      "byteOffset": 0,
      "byteStride": 12,
      "target": 34962
    },
    {
      "name": "bufferView_1",
      "buffer": 0,
      "byteLength": 254976,
      "byteOffset": 254976,
      "byteStride": 12,
      "target": 34962
    },
    {
      "name": "bufferView_2",
      "buffer": 0,
      "byteLength": 164888,
      "byteOffset": 509952,
      "byteStride": 8,
      "target": 34962
    },
    {
      "name": "bufferView_3",
      "buffer": 0,
      "byteLength": 91016,
      "byteOffset": 674840,
      "target": 34963
    }
  ],
  "materials": [
    {
      "name": "DINOMAT",
      "pbrMetallicRoughness": {
        "baseColorFactor": [
          0.5,
          0.5,
          0.5,
          1
        ],
        "metallicFactor": 0,
        "roughnessFactor": 1
      },
      "emissiveFactor": [
        0,
        0,
        0
      ],
      "alphaMode": "OPAQUE",
      "doubleSided": false
    },
    {
      "name": "DINOOJO",
      "pbrMetallicRoughness": {
        "baseColorFactor": [
          0.5,
          0.5,
          0.5,
          1
        ],
        "metallicFactor": 0,
        "roughnessFactor": 1
      },
      "emissiveFactor": [
        0,
        0,
        0
      ],
      "alphaMode": "OPAQUE",
      "doubleSided": false
    },
    {
      "name": "DINODIENTE",
      "pbrMetallicRoughness": {
        "baseColorFactor": [
          0.5,
          0.5,
          0.5,
          1
        ],
        "metallicFactor": 0,
        "roughnessFactor": 1
      },
      "emissiveFactor": [
        0,
        0,
        0
      ],
      "alphaMode": "OPAQUE",
      "doubleSided": false
    },
    {
      "name": "U_A",
      "pbrMetallicRoughness": {
        "baseColorFactor": [
          0.5,
          0.5,
          0.5,
          1
        ],
        "metallicFactor": 0,
        "roughnessFactor": 1
      },
      "emissiveFactor": [
        0,
        0,
        0
      ],
      "alphaMode": "OPAQUE",
      "doubleSided": false
    }
  ],
  "meshes": [
    {
      "name": "META_1",
      "primitives": [
        {
          "attributes": {
            "POSITION": 0,
            "NORMAL": 1,
            "TEXCOORD_0": 2
          },
          "indices": 3,
          "material": 0,
          "mode": 4
        }
      ]
    },
    {
      "name": "METAojo_1",
      "primitives": [
        {
          "attributes": {
            "POSITION": 4,
            "NORMAL": 5,
            "TEXCOORD_0": 6
          },
          "indices": 7,
          "material": 0,
          "mode": 4
        },
        {
          "attributes": {
            "POSITION": 8,
            "NORMAL": 9,
            "TEXCOORD_0": 10
          },
          "indices": 11,
          "material": 1,
          "mode": 4
        }
      ]
    },
    {
      "name": "DIENTS_1",
      "primitives": [
        {
          "attributes": {
            "POSITION": 12,
            "NORMAL": 13,
            "TEXCOORD_0": 14
          },
          "indices": 15,
          "material": 2,
          "mode": 4
        }
      ]
    },
    {
      "name": "UNAS_1",
      "primitives": [
        {
          "attributes": {
            "POSITION": 16,
            "NORMAL": 17
          },
          "indices": 18,
          "material": 3,
          "mode": 4
        }
      ]
    }
  ],
  "nodes": [
    {
      "name": "META",
      "mesh": 0
    },
    {
      "name": "METAojo",
      "mesh": 1
    },
    {
      "name": "DIENTS",
      "mesh": 2
    },
    {
      "name": "UNAS",
      "mesh": 3
    }
  ],
  "scene": 0,
  "scenes": [
    {
      "nodes": [
        0,
        1,
        2,
        3
      ]
    }
  ]
}
