<?xml version="1.0" encoding="utf-8"?>
<!-- Generator: Adobe Illustrator 14.0.0, SVG Export Plug-In . SVG Version: 6.00 Build 43363)  -->
<!DOCTYPE svg PUBLIC "-//W3C//DTD SVG 1.1//EN" "http://www.w3.org/Graphics/SVG/1.1/DTD/svg11.dtd">
<svg version="1.1" xmlns="http://www.w3.org/2000/svg" xmlns:xlink="http://www.w3.org/1999/xlink" x="0px" y="0px" width="224px"
	 height="224px" viewBox="0 0 224 224" enable-background="new 0 0 224 224" xml:space="preserve">
<g id="Layer_1" display="none">
	<rect x="-140" y="-220" display="inline" stroke="#000000" width="800" height="800"/>
</g>
<g id="Layer_2">
	<path fill="#FFFFFF" d="M112,224C50.243,224,0,173.757,0,112S50.243,0,112,0c12.849,0,25.45,2.159,37.452,6.416l3.77,1.337
		l-2.674,7.54l-3.77-1.337C135.636,10.004,123.936,8,112,8C54.654,8,8,54.654,8,112s46.654,104,104,104s104-46.654,104-104
		c0-11.879-1.985-23.527-5.901-34.623l-1.331-3.772l7.544-2.662l1.331,3.772C221.861,86.667,224,99.212,224,112
		C224,173.757,173.757,224,112,224L112,224z"/>
</g>
</svg>
